<?xml version="1.0" encoding="utf-8"?>
<!DOCTYPE svg PUBLIC "-//W3C//DTD SVG 1.0//EN" "http://www.w3.org/TR/2001/REC-SVG-20010904/DTD/svg10.dtd">
<svg version="1.0" xmlns="http://www.w3.org/2000/svg" width="218px" height="168px" viewBox="0 0 218 168" preserveAspectRatio="xMidYMid meet">
 <g fill="#43fb1f">
  <path d="M128.2 139 c-3.5 -3.3 -15.2 -8.6 -22.7 -10.3 -14.9 -3.4 -21.1 -3.9 -43.5 -3.6 l-22.5 0.4 5.6 -5.3 c6.2 -5.8 11.9 -15.6 14.4 -25.2 3.9 -14.5 3.9 -43.5 -0.1 -65.5 -0.8 -4.4 -1.6 -9.3 -1.9 -11 l-0.6 -3 1.8 2.5 c6.1 8.5 19.4 19.7 30.5 25.8 18 9.8 47.4 10.9 63.9 2.3 2.3 -1.2 4.3 -2 4.5 -1.8 0.2 0.2 -1.3 2 -3.3 3.9 -5 4.7 -10.3 10.5 -13.2 14.6 -4.1 5.9 -10.2 18.6 -12.2 25.7 -3.9 13.7 -3.5 33.8 1 47.1 1.9 5.9 1.6 6.5 -1.7 3.4z"/>
 </g>
</svg>